/* XPM */
static char *result[] = {
/* columns rows colors chars-per-pixel */
"32 32 4 1 ",
"  c #3E8948",
". c #63C74D",
"X c #EAD4AA",
"o c None",
/* pixels */
"oooooooooooooooooooooooooooooooo",
"oooooooooooooooooooooooooooooooo",
"oooooooooooooooooooooooooooooooo",
"oooooooooooooooooooooooooooooooo",
"oooooooooooooooooooooooooooooooo",
"oooooooooooooooooooooooooooooooo",
"oooooooooooooooooooooooooooooooo",
"ooooooo................ooooooooo",
"oooooo. .            ...oooooooo",
"ooooo. .  ..........  ...ooooooo",
"ooooo. . ..        .. . .ooooooo",
"ooooo. . .  XXXXXX  . . .ooooooo",
"ooooo. . . XXXXXXXX .....ooooooo",
"ooooo. . . XXXXXXXX .....ooooooo",
"ooooo. .........XXX.     ooooooo",
"ooooo..         ...      ooooooo",
"ooooo.     .      .   .  ooooooo",
"ooooo  . . . .    .   . .ooooooo",
"ooooo .. . . .    . . . .ooooooo",
"ooooo  . . . . .  .   . .ooooooo",
"ooooo .. . . . .. . . ...ooooooo",
"ooooo  . . ... .  . . .  ooooooo",
"ooooo  . . .   .  . .... ooooooo",
"ooooo  ... .....  .   .  ooooooo",
"ooooo    ....     .   .  ooooooo",
"oooooo      .     .     oooooooo",
"oooooooo              oooooooooo",
"oooooooooooooooooooooooooooooooo",
"oooooooooooooooooooooooooooooooo",
"oooooooooooooooooooooooooooooooo",
"oooooooooooooooooooooooooooooooo",
"oooooooooooooooooooooooooooooooo"
};
