/* XPM */
static char *result[] = {
/* columns rows colors chars-per-pixel */
"32 32 5 1 ",
"  c #3E2F5A",
". c #39314B",
"X c #564064",
"o c #2F2E2F",
"O c white",
/* pixels */
"    .XoX.          .XoX.      . ",
"   ...o... ..     ...o...    .. ",
". ....o......... ....o.... .....",
".....ooo............ooo.........",
"oooooooooooooooooooooooooooooooo",
"XXXXXXXXXXXXoooXXXXXXXXXXXXXXooo",
"XXXXX XXXXXXXoXXXXXX XXX XXXXXoX",
"  X    X   XXoXX  X   X      XoX",
"     .    ..XoX..          .  o ",
".............o......  ........o.",
"............ooo..............ooo",
"oooooooooooooooooooooooooooooooo",
"XXXoooXXXXXXXXXXXXXXXoooXXXXXXXX",
"XXXXoXXXXXXXXXX  XXXXXoXXXXXX  X",
"X XXoXX  X   X    X XXoXX X     ",
"  .XoX.    .   ...  .XoX.    .. ",
" ...o...  ...      ...o...  ..  ",
"....o...........  ....o.........",
"...ooo...............ooo........",
"oooooooooooooooooooooooooooooooo",
"XXXXXXXXXXoooXXXXXXXXXXXXoooXXXX",
"XXXXXXX XXXoXXXXXX XXXXXXXoXXX X",
" X   X   XXoXX  X    X  XXoXX   ",
"     .    XoX     .  .   XoX  . ",
"  ..  .   .o.    ..   .  .o.   .",
" ..   .. ..o.. ...  .   ..o..   ",
".... ......o.......... ...o... .",
"..........ooo............ooo....",
"oooooooooooooooooooooooooooooooo",
"XXXXXoooXXXXXXXXXXXXoooXXXXXXXXX",
"XXXXXXoXXXXXX XXX XXXoXXXXXXXX X",
" X  XXoXX  X   X   XXoXX  X     "
};
