/* XPM */
static char *result[] = {
/* columns rows colors chars-per-pixel */
"32 32 5 1 ",
"  c #564064",
". c #85578E",
"X c #2F2E2F",
"o c #3E2F5A",
"O c white",
/* pixels */
" ........XXX................. XX",
"...... ...X...... ............XX",
"... .   ..X..  .    .  ... ...XX",
"..  o    .X.     o  o   . . ..XX",
". .  o   oXo    oo   o       .XX",
".    oo ooXoo ooo  o   oo     XX",
" .  ooooooXoooooooooo oooo    XX",
"o oooooooXXXooooooooooooooo  oXX",
"XXXXXXXXXXXXXXXXXXXXXXXXXXXXXXXX",
" ............................ XX",
"... ........ ... .............XX",
".... ...  .   .   .....  .. ..XX",
"..  .o.o      o    . .     ...XX",
".    oooo oo     o     o     .XX",
" .  ooooooooooo ooooooooo     XX",
"o ooooooooooooooooooooooooo  oXX",
"XXXXXXXXXXXXXXXXXXXXXXXXXXXXXXXX",
" ..........XXX............... XX",
".... .......X...... ... ......XX",
"..    .   ..X..  .   .    . ..XX",
".        oo.X.oo             .XX",
" .  ooooooooXoooooo  ooooo    XX",
"o  ooooooooXXXooooooooooooo  oXX",
"XXXXXXXXXXXXXXXXXXXXXXXXXXXXXXXX",
" ............................ XX",
"..............  ..............XX",
"..   .  .   .    . .. .. .  ..XX",
". .       o   ooo          . .XX",
".     o  ooo      oo  o o     XX",
" .   oooooooooo  ooooooooo    XX",
"o  oooooooooooooooooooooooo  oXX",
"XXXXXXXXXXXXXXXXXXXXXXXXXXXXXXXX"
};
