/* XPM */
static char *result[] = {
/* columns rows colors chars-per-pixel */
"64 64 18 1 ",
"  c #0C3F0F",
". c #190F20",
"X c #6D1823",
"o c #0F5314",
"O c #116116",
"+ c #5B5168",
"@ c #C2360F",
"# c #D64F5D",
"$ c #67940F",
"% c #63AD45",
"& c #7EC262",
"* c #85BF13",
"= c #D48A19",
"- c #CEB7B9",
"; c #C9B8BD",
": c #EFECEC",
"> c #F8F8F8",
", c None",
/* pixels */
",,,,,,,,,,,,,,,,,,,,,,,,,,,,,,,,,,,,,,,,,,,,,,,,,,,,,,,,,,,,,,,,",
",,,,,,,,,,,,,,,,,,,,,,,,,,,,,,,,,,,,,,,,,,,,,,,,,,,,,,,,,,,,,,,,",
",,,,,,,,,,,,,,,,,,,,,,,,,,,,,,,,,,,,,,,,,,,,,,,,,,,,,,,,,,,,,,,,",
",,,,,,,,,,,,,,,,,,,,,,,,,,,,,,,,,,,,,,,,,,,,,,,,,,,,,,,,,,,,,,,,",
",,,,,,,,,,,,,,,,,,,,,,,,,,,,,,,,,,,,,,,,,,,,,,,,,,,,,,,,,,,,,,,,",
",,,,,,,,,,,,,,,,,,,,,,,,,,,,,,,,,,,,,,,,,,,,,,,,,,,,,,,,,,,,,,,,",
",,,,,,,,,,,,,,,,,,,,,,,,,,,,,##XXXXXX,,,,,,,,,,,,,,,,,,,,,,,,,,,",
",,,,,,,,,,,,@,,,,,,,,,,,,,,,##XXXXXXXX,,,,,,,,,,,,,,,,,,,,,,,,,,",
",,,,,,,,,,,,,,,,,,,,,,,,,,,#XXXXX....XX,,,,,,,,,,,,,,,,,,,,,,,,,",
",,,,,,,,,,,,=,,,,,,,,,,,,,#XXXXXXXX...XX,,,,,,,,,,,,,,,,,,,,,,,,",
",,,,,,,,,,,,,,,,,,,,,,,,,###XXXXXXXX...XX,,,,,,,,,,,,,,,,,,,,,,,",
",,,,,,,,,,,,,,,,,,,,,,,,,#.#XXXX.XXXX.XXX,,,,,,,,,,,,,,,,,,,,,,,",
",,,,,,,,,,,,,,,,,,,,,,,,,#.#XXXX..XX..,,X,,,,,,,,,,,,,,,,,,,,,,,",
",,,,,,,,,,,,,,,,,,,,,,,,,#..#XX...X...,,X,,,,,,,,,,,,,,,,,,,,,,,",
",,,,,,,,,,,,,,,,,,,,,,,,,#........XX...,X,,,,,,,,,,,,,,,,,,,,,,,",
",,,,,,,,,,,,,,,@,,,,,,,,,#........XXX..,X,,,,,,,,,,,,,,,,,,,,,,,",
",,,,,,,,,,,,,,,=,,,,,,,,##........XXX...,,,,,,,,,,,,,,,,,,,,,,,,",
",,,,,,,,,,,,,,,,,,,,,,,,#..::.::...XXX..,,,,,,,,,,,,,,,,,,,,,,,,",
",,,,,,,,,,,,,,,,,,,,,,,,#...........XX...,,,,,,,,,,,,,,,,,,,,,,,",
",,,,,,,,,,,,,,@,,,,,,,,,#...........XX...,,,,,,,,,,,,,,,,,,,,,,,",
",,,,,,,,,,,,,@,,,,,,,,,,#...........XX...,,,,,,,,,,,,,,,,,,,,,,,",
",,,,,,,,,,,,,,@@,,,,,,,##X.........XXX....,,,,,,,,,,,,,,,,,,,,,,",
",,,,,,,,,,,,,@==@,,,,,,#XX........XXX.....,,,,,,,,,,,,,,,,,,,,,,",
",,,,,,,,,,,,,==>@,,,,,.#XXX......XXXX..XX..,,,,,,,,,,,,,,,,,,,,,",
",,,,,,,,,,,,@=>=@,,,,#..#XXX....XXXX...XXXX,,,,,,,,,,,,,,,,,,,,,",
",,,,,,,,,,,,@@>=@,,,###..XXX...XXXX...XXXXXX,,,,,,,,,,,,,,,,,,,,",
",,,,,,,,,,,,,@@@,,,.##XX..XX.X.XXXX..XXXXXXXX,,,,,,,,,,,,,,,,,,,",
",,,,,,,,,,,,,,,,,,...#XXX..X.XX.XX..XX.XXXXXX,,,,,,,,,,,,,,,,,,,",
",,,,,,,,,,,,,,,,,.....XXXXX..XX.X..XXX..XXXXXX,,,,,,,,,,,,,,,,,,",
",,,,,,,,,,,,,::-.##XX.XXXXXX.XX.XXXXXX..XXXXXX,,,,,,,,,,,,,,,,,,",
",,,,,,,,,,,,,-::-#XXXX.XXXXX.XX.XXXXXXX.....XX,,,,,,,,,,,,,,,,,,",
",,,,,,,,,,,,,-:::++XXX.XXXXXXXX.XXXXXX....XX.XX,,,,,,,,,,,,,,,,,",
",,,,,,,,,,,,,,;;+..XXX.X.XXXXXXXXXXXX..XX..XXXX,,,,,,,,,,,,,,,,,",
",,,,,,,,,,,,,,,,X..XXX.X.XXXXXXXXXX...XXXX.XXXX,,,,,,,,,,,,,,,,,",
",,,,,,,,,,,,,,,,X..XXXXXX.X.XXXXXX.XXXXXXX.XXXX,,,,,,,,,,,,,,,,,",
",,,,,,,,,,,,,,,,X..XXXXX..X.XXXXX.XXXXXXXXXXXX.,,,,,,,,,,,,,,,,,",
",,,,,,,,,,,,,,,,X..XX.XX..X.XXXX;;;;+.XXXXXXX..,,,,,,,,,,,,,,,,,",
",,,,,,,,,,,,,,,,X..XX.XX.X..XXX::::;+.XXXXXX...,,,,,,,,,,,,,,,,,",
",,,,,,,,,,,,,,,,X.XXX.XX.X.XXX ;::: %.XXXXX....,,,,,,,,,,,,,,,,,",
",,,,,,,,,,,,,,,,X.XX..XXXXX... X-;-.%.XXXX....,,,,,,,,,,,,,,,,,,",
",,,,,,,,,,,,,,,,X.XX...XXXX.XX XX...%.XXXX....,,,,,,,,,,,,,,,,,,",
",,,,,,,,,,,,,,,,,.XX...XX.X.X.X X..%..XXX.....,,,,,,,,,,,,,,,,,,",
",,,,,,,,,,,,,,,,,X.X......X.X.XX  %...XX.....,,,,,,,,,,,,,,,,,,,",
",,,,,,,,,,,,,,,,,X.X.....XXXX.XXX ...XX......,,,,,,,,,,,,,,,,,,,",
",,,,,,,,,,,,,,,,,X.XX..XXXXXX.XXoO&..XX......,,,,,,,,,,,,,,,,,,,",
",,,,,,,,,,,,,,,,,X,,X...XXXX.XXoOOO&.X......,,,,,,,,,,,,,,,,,,,,",
",,,,,,,,,,,,,,,,,X,,X,...XXX.XXo*$O&........,,,,,,,,,,,,,,,,,,,,",
",,,,,,,,,,,,,,,,,X,,X,,..XX..XXo*$O&........,,,,,,,,,,,,,,,,,,,,",
",,,,,,,,,,,,,,,,,X,,X,,..XX...Xo*$O&........,,,,,,,,,,,,,,,,,,,,",
",,,,,,,,,,,,,,,,,X,,X,,,.XX.X.XoOOO&...,....,,,,,,,,,,,,,,,,,,,,",
",,,,,,,,,,,,,,,,,X,,,,,,.XX...X.oO&....,,...,,,,,,,,,,,,,,,,,,,,",
",,,,,,,,,,,,,,,,,X,,,,,,..X.X.X.X......,,,..,,,,,,,,,,,,,,,,,,,,",
",,,,,,,,,,,,,,,,,,,,,,,,..X.X.X.X......,,,..,,,,,,,,,,,,,,,,,,,,",
",,,,,,,,,,,,,,,,,,,,,,,,,.XXX.X.X....,.,,,..,,,,,,,,,,,,,,,,,,,,",
",,,,,,,,,,,,,,,,,,,,,,,,,,.XX.X.X..,.,.,,,..,,,,,,,,,,,,,,,,,,,,",
",,,,,,,,,,,,,,,,,,,,,,,,,,..X.X,X..,,,,,,,.,,,,,,,,,,,,,,,,,,,,,",
",,,,,,,,,,,,,,,,,,,,,,,,,,,.X.X,X..,,,,,,,.,,,,,,,,,,,,,,,,,,,,,",
",,,,,,,,,,,,,,,,,,,,,,,,,,,...XXX,.,,,,,,..,,,,,,,,,,,,,,,,,,,,,",
",,,,,,,,,,,,,,,,,,,,,,,,,,,,...XX,.,,,,,,.,,,,,,,,,,,,,,,,,,,,,,",
",,,,,,,,,,,,,,,,,,,,,,,,,,,,,,,,XX,,,,,,,,,,,,,,,,,,,,,,,,,,,,,,",
",,,,,,,,,,,,,,,,,,,,,,,,,,,,,,,,,X,,,,,,,,,,,,,,,,,,,,,,,,,,,,,,",
",,,,,,,,,,,,,,,,,,,,,,,,,,,,,,,,X,,,,,,,,,,,,,,,,,,,,,,,,,,,,,,,",
",,,,,,,,,,,,,,,,,,,,,,,,,,,,,,,,,,,,,,,,,,,,,,,,,,,,,,,,,,,,,,,,",
",,,,,,,,,,,,,,,,,,,,,,,,,,,,,,,,,,,,,,,,,,,,,,,,,,,,,,,,,,,,,,,,"
};
