/* XPM */
static char *result[] = {
/* columns rows colors chars-per-pixel */
"64 64 18 1 ",
"  c #0C3F0F",
". c #190F20",
"X c #6D1823",
"o c #0F5314",
"O c #116116",
"+ c #5B5168",
"@ c #C2360F",
"# c #D64F5D",
"$ c #67940F",
"% c #63AD45",
"& c #7EC262",
"* c #85BF13",
"= c #D48A19",
"- c #CEB7B9",
"; c #C9B8BD",
": c #EFECEC",
"> c #F8F8F8",
", c None",
/* pixels */
",,,,,,,,,,,,,,,,,,,,,,,,,,,,,,,,,,,,,,,,,,,,,,,,,,,,,,,,,,,,,,,,",
",,,,,,,,,,,,,,,,,,,,,,,,,,,,,,,,,,,,,,,,,,,,,,,,,,,,,,,,,,,,,,,,",
",,,,,,,,,,,,,,,,,,,,,,,,,,,,,,,,,,,,,,,,,,,,,,,,,,,,,,,,,,,,,,,,",
",,,,,,,,,,,,,,,,,,,,,,,,,,,,,,,,,,,,,,,,,,,,,,,,,,,,,,,,,,,,,,,,",
",,,,,,,,,,,,,,,,,,,,,,,,,,,,,,,,,,,,,,,,,,,,,,,,,,,,,,,,,,,,,,,,",
",,,,,,,,,,,,,,,,,,,,,,,,,,,,,,,,,,,,,,,,,,,,,,,,,,,,,,,,,,,,,,,,",
",,,,,,,,,,,,,,,,,,,,,,,,,,,,,,,,,,,,,,,,,,,,,,,,,,,,,,,,,,,,,,,,",
",,,,,,,,,,,,,,,,,,,,,,,,,,,,,,,,,,,,,,,,,,,,,,,,,,,,,,,,,,,,,,,,",
",,,,,,,,,,,,,,,,,,,,,,,,,,,,,,XXXXXXXX,,,,,,,,,,,,,,,,,,,,,,,,,,",
",,,,,,,,,,,,,,,,,,,,,,,,,,,,,XXXXXXXXXX,,,,,,,,,,,,,,,,,,,,,,,,,",
",,,,,,,,,,,,,,,,,,,,,,,,,,,,#XXXXX....XX,,,,,,,,,,,,,,,,,,,,,,,,",
",,,,,,,,,,,,,,,,,,,,,,,,,,,#XXXXXXXX...XX,,,,,,,,,,,,,,,,,,,,,,,",
",,,,,,,,,,,,,,,,,,,,,,,,,,#XXXXXXXXXX...XX,,,,,,,,,,,,,,,,,,,,,,",
",,,,,,,,,,,,,,,,,,,,,,,,,,#.XXXXX.XXXX.XXX,,,,,,,,,,,,,,,,,,,,,,",
",,,,,,,,,,,,,,,,,,,,,,,,,,#.XXXXX..XX..,,X,,,,,,,,,,,,,,,,,,,,,,",
",,,,,,,,,,,,,,,,,,,,,,,,,,#..XXX...X...,,X,,,,,,,,,,,,,,,,,,,,,,",
",,,,,,,,,,,,,@,,,,,,,,,,,,#........XX...,X,,,,,,,,,,,,,,,,,,,,,,",
",,,,,,,,,,,,,,,,,,,,,,,,,,#........XXX..,X,,,,,,,,,,,,,,,,,,,,,,",
",,,,,,,,,,,,,=,,,,,,,,,,,##........XXX...,,,,,,,,,,,,,,,,,,,,,,,",
",,,,,,,,,,,,,,,,,,,,,,,,,#..::.::...XXX..,,,,,,,,,,,,,,,,,,,,,,,",
",,,,,,,,,,,,,,,,,,,,,,,,,#...........XX...,,,,,,,,,,,,,,,,,,,,,,",
",,,,,,,,,,,,,,,@,,,,,,,,,#...........XX...,,,,,,,,,,,,,,,,,,,,,,",
",,,,,,,,,,,,,,,=,,,,,,,,,#...........XX...,,,,,,,,,,,,,,,,,,,,,,",
",,,,,,,,,,,,,,@,,,,,,,,,##X.........XX.....,,,,,,,,,,,,,,,,,,,,,",
",,,,,,,,,,,,,,=@,,,,,,,,#XX........XXX..XX..,,,,,,,,,,,,,,,,,,,,",
",,,,,,,,,,,,,,@=@,,,,,,.#XXX......XXXX..XXXX,,,,,,,,,,,,,,,,,,,,",
",,,,,,,,,,,,,@@==@,,,,#..XXXX....XXXX..XXXXXX,,,,,,,,,,,,,,,,,,,",
",,,,,,,,,,,,,@=>=@,,,##X..XXX...XXXX..XXXXXXXX,,,,,,,,,,,,,,,,,,",
",,,,,,,,,,,,,@=>>@,,.#XXX..XX.X.XXXX..X.XXXXXX,,,,,,,,,,,,,,,,,,",
",,,,,,,,,,,,,,@@@,,...XXXX..X.XX.XX..XX..XXXXXX,,,,,,,,,,,,,,,,,",
",,,,,,,,,,,,,,,,,,.....XXXXX..XX.X..XXX..XXXXXX,,,,,,,,,,,,,,,,,",
",,,,,,,,,,,,,,-::.#XXX.XXXXXX.XX.XXXXXXX.....XX,,,,,,,,,,,,,,,,,",
",,,,,,,,,,,,,,-::-XXXXX.XXXXX.XX.XXXXXX....XX.XX,,,,,,,,,,,,,,,,",
",,,,,,,,,,,,,,-:::++XXX.XXXXXXXX.XXXXX..XX..XXXX,,,,,,,,,,,,,,,,",
",,,,,,,,,,,,,,,;;+..XXX.X.XXXXXXXXXX...XXXX.XXXX,,,,,,,,,,,,,,,,",
",,,,,,,,,,,,,,,,,X..XXX.X.XXXXXXXXX.XXXXXXX.XXXX,,,,,,,,,,,,,,,,",
",,,,,,,,,,,,,,,,,X..XXXXXX.X.XXXXX.XXXXXXXXXXXX.,,,,,,,,,,,,,,,,",
",,,,,,,,,,,,,,,,,X..XXXXX..X.XXXX;;;;+.XXXXXXX..,,,,,,,,,,,,,,,,",
",,,,,,,,,,,,,,,,,X..XXXXX..X.XXX::::;+.XXXXXX...,,,,,,,,,,,,,,,,",
",,,,,,,,,,,,,,,,,X..XX.XX.X..XX ;::: %.XXXXX....,,,,,,,,,,,,,,,,",
",,,,,,,,,,,,,,,,,X.XXX.XX.X.XXX X-;-.%.XXXX....,,,,,,,,,,,,,,,,,",
",,,,,,,,,,,,,,,,,X.XX..XXXXX... XX...%.XXXX....,,,,,,,,,,,,,,,,,",
",,,,,,,,,,,,,,,,,X.XX...XXXX.XXX X..%..XXX.....,,,,,,,,,,,,,,,,,",
",,,,,,,,,,,,,,,,,,.XX...XX.X.X.XX  %...XX.....,,,,,,,,,,,,,,,,,,",
",,,,,,,,,,,,,,,,,,X.X......X.X.XXX ...XX......,,,,,,,,,,,,,,,,,,",
",,,,,,,,,,,,,,,,,,X.X.....XXXX.XXoO&..XX......,,,,,,,,,,,,,,,,,,",
",,,,,,,,,,,,,,,,,,X.XX..XXXXXX.XoOOO&.X......,,,,,,,,,,,,,,,,,,,",
",,,,,,,,,,,,,,,,,,X,,X...XXXX.XXo*$O&........,,,,,,,,,,,,,,,,,,,",
",,,,,,,,,,,,,,,,,,X,,X....XXX.XXo*$O&........,,,,,,,,,,,,,,,,,,,",
",,,,,,,,,,,,,,,,,,X,,X,,..XX..XXo*$O&........,,,,,,,,,,,,,,,,,,,",
",,,,,,,,,,,,,,,,,,X,,X,,..XX...XoOOO&...,....,,,,,,,,,,,,,,,,,,,",
",,,,,,,,,,,,,,,,,,X,,,,,,.XX.X.X.oO&....,,...,,,,,,,,,,,,,,,,,,,",
",,,,,,,,,,,,,,,,,,X,,,,,,.XX...X.X......,,,..,,,,,,,,,,,,,,,,,,,",
",,,,,,,,,,,,,,,,,,,,,,,,,..X.X.X.X......,,,..,,,,,,,,,,,,,,,,,,,",
",,,,,,,,,,,,,,,,,,,,,,,,,..X.X.X.X....,.,,,..,,,,,,,,,,,,,,,,,,,",
",,,,,,,,,,,,,,,,,,,,,,,,,,.XXX.X.X..,.,.,,,..,,,,,,,,,,,,,,,,,,,",
",,,,,,,,,,,,,,,,,,,,,,,,,,,.XX.X,X..,,,,,,,.,,,,,,,,,,,,,,,,,,,,",
",,,,,,,,,,,,,,,,,,,,,,,,,,,..X.X,X..,,,,,,,.,,,,,,,,,,,,,,,,,,,,",
",,,,,,,,,,,,,,,,,,,,,,,,,,,,.X.XXX,.,,,,,,..,,,,,,,,,,,,,,,,,,,,",
",,,,,,,,,,,,,,,,,,,,,,,,,,,,...XXX,.,,,,,,.,,,,,,,,,,,,,,,,,,,,,",
",,,,,,,,,,,,,,,,,,,,,,,,,,,,,..,,XX,,,,,,,,,,,,,,,,,,,,,,,,,,,,,",
",,,,,,,,,,,,,,,,,,,,,,,,,,,,,,,,,,X,,,,,,,,,,,,,,,,,,,,,,,,,,,,,",
",,,,,,,,,,,,,,,,,,,,,,,,,,,,,,,,,X,,,,,,,,,,,,,,,,,,,,,,,,,,,,,,",
",,,,,,,,,,,,,,,,,,,,,,,,,,,,,,,,,,,,,,,,,,,,,,,,,,,,,,,,,,,,,,,,"
};
